<mxfile host="Electron" agent="Mozilla/5.0 (X11; Linux x86_64) AppleWebKit/537.36 (KHTML, like Gecko) draw.io/24.7.8 Chrome/128.0.6613.36 Electron/32.0.1 Safari/537.36" version="24.7.8">
  <diagram id="C5RBs43oDa-KdzZeNtuy" name="Page-1">
    <mxGraphModel dx="1434" dy="883" grid="1" gridSize="10" guides="1" tooltips="1" connect="1" arrows="1" fold="1" page="1" pageScale="1" pageWidth="827" pageHeight="1169" math="0" shadow="1">
      <root>
        <mxCell id="WIyWlLk6GJQsqaUBKTNV-0" />
        <mxCell id="WIyWlLk6GJQsqaUBKTNV-1" parent="WIyWlLk6GJQsqaUBKTNV-0" />
        <mxCell id="y7AAn0BBnb7Nk256DpvL-0" value="" style="rounded=1;whiteSpace=wrap;html=1;shadow=0;glass=0;fillColor=#dae8fc;strokeColor=#6c8ebf;sketch=1;curveFitting=1;jiggle=2;" vertex="1" parent="WIyWlLk6GJQsqaUBKTNV-1">
          <mxGeometry x="169" y="170" width="620" height="487" as="geometry" />
        </mxCell>
        <mxCell id="y7AAn0BBnb7Nk256DpvL-10" style="edgeStyle=orthogonalEdgeStyle;rounded=0;orthogonalLoop=1;jettySize=auto;html=1;" edge="1" parent="WIyWlLk6GJQsqaUBKTNV-1" source="y7AAn0BBnb7Nk256DpvL-3" target="y7AAn0BBnb7Nk256DpvL-4">
          <mxGeometry relative="1" as="geometry" />
        </mxCell>
        <mxCell id="y7AAn0BBnb7Nk256DpvL-11" style="edgeStyle=orthogonalEdgeStyle;rounded=0;orthogonalLoop=1;jettySize=auto;html=1;" edge="1" parent="WIyWlLk6GJQsqaUBKTNV-1" source="y7AAn0BBnb7Nk256DpvL-3" target="y7AAn0BBnb7Nk256DpvL-5">
          <mxGeometry relative="1" as="geometry" />
        </mxCell>
        <mxCell id="y7AAn0BBnb7Nk256DpvL-3" value="&lt;font style=&quot;font-size: 14px;&quot;&gt;KieServices&lt;/font&gt;" style="rounded=1;whiteSpace=wrap;html=1;shadow=0;glass=0;fontSize=14;fillColor=#e51400;strokeColor=#B20000;fontColor=#ffffff;" vertex="1" parent="WIyWlLk6GJQsqaUBKTNV-1">
          <mxGeometry x="414" y="270" width="130" height="40" as="geometry" />
        </mxCell>
        <mxCell id="y7AAn0BBnb7Nk256DpvL-4" value="&lt;font style=&quot;font-size: 14px;&quot;&gt;KieRepository&lt;/font&gt;" style="rounded=1;whiteSpace=wrap;html=1;shadow=0;glass=0;fontSize=14;fillColor=#d5e8d4;strokeColor=#82b366;" vertex="1" parent="WIyWlLk6GJQsqaUBKTNV-1">
          <mxGeometry x="250" y="370" width="130" height="40" as="geometry" />
        </mxCell>
        <mxCell id="y7AAn0BBnb7Nk256DpvL-12" style="edgeStyle=orthogonalEdgeStyle;rounded=0;orthogonalLoop=1;jettySize=auto;html=1;entryX=0;entryY=0.5;entryDx=0;entryDy=0;" edge="1" parent="WIyWlLk6GJQsqaUBKTNV-1" source="y7AAn0BBnb7Nk256DpvL-5" target="y7AAn0BBnb7Nk256DpvL-6">
          <mxGeometry relative="1" as="geometry" />
        </mxCell>
        <mxCell id="y7AAn0BBnb7Nk256DpvL-5" value="&lt;div style=&quot;background-color: rgb(255, 255, 255); color: rgb(8, 8, 8); font-size: 14px;&quot;&gt;&lt;pre style=&quot;font-family: &amp;quot;JetBrains Mono&amp;quot;, monospace; font-size: 14px;&quot;&gt;KieContainer&lt;/pre&gt;&lt;/div&gt;" style="rounded=1;whiteSpace=wrap;html=1;shadow=0;glass=0;fontSize=14;fillColor=#d5e8d4;strokeColor=#82b366;" vertex="1" parent="WIyWlLk6GJQsqaUBKTNV-1">
          <mxGeometry x="414" y="370" width="130" height="40" as="geometry" />
        </mxCell>
        <mxCell id="y7AAn0BBnb7Nk256DpvL-6" value="&lt;div style=&quot;background-color: rgb(255, 255, 255); color: rgb(8, 8, 8); font-size: 14px;&quot;&gt;&lt;pre style=&quot;font-family: &amp;quot;JetBrains Mono&amp;quot;, monospace; font-size: 14px;&quot;&gt;KieSession&lt;/pre&gt;&lt;/div&gt;" style="rounded=1;whiteSpace=wrap;html=1;shadow=0;glass=0;fontSize=14;fillColor=#d5e8d4;strokeColor=#82b366;" vertex="1" parent="WIyWlLk6GJQsqaUBKTNV-1">
          <mxGeometry x="610" y="370" width="130" height="40" as="geometry" />
        </mxCell>
        <mxCell id="y7AAn0BBnb7Nk256DpvL-15" style="edgeStyle=orthogonalEdgeStyle;rounded=0;orthogonalLoop=1;jettySize=auto;html=1;" edge="1" parent="WIyWlLk6GJQsqaUBKTNV-1" target="y7AAn0BBnb7Nk256DpvL-25">
          <mxGeometry relative="1" as="geometry">
            <mxPoint x="575" y="520" as="sourcePoint" />
            <mxPoint x="575" y="573" as="targetPoint" />
          </mxGeometry>
        </mxCell>
        <mxCell id="y7AAn0BBnb7Nk256DpvL-17" value="&lt;font style=&quot;font-size: 16px;&quot;&gt;核心类关系&lt;/font&gt;" style="text;html=1;align=center;verticalAlign=middle;whiteSpace=wrap;rounded=0;" vertex="1" parent="WIyWlLk6GJQsqaUBKTNV-1">
          <mxGeometry x="424" y="200" width="110" height="30" as="geometry" />
        </mxCell>
        <mxCell id="y7AAn0BBnb7Nk256DpvL-26" style="edgeStyle=orthogonalEdgeStyle;rounded=0;orthogonalLoop=1;jettySize=auto;html=1;" edge="1" parent="WIyWlLk6GJQsqaUBKTNV-1" source="y7AAn0BBnb7Nk256DpvL-21" target="y7AAn0BBnb7Nk256DpvL-23">
          <mxGeometry relative="1" as="geometry" />
        </mxCell>
        <mxCell id="y7AAn0BBnb7Nk256DpvL-27" style="edgeStyle=orthogonalEdgeStyle;rounded=0;orthogonalLoop=1;jettySize=auto;html=1;" edge="1" parent="WIyWlLk6GJQsqaUBKTNV-1" source="y7AAn0BBnb7Nk256DpvL-21" target="y7AAn0BBnb7Nk256DpvL-24">
          <mxGeometry relative="1" as="geometry" />
        </mxCell>
        <mxCell id="y7AAn0BBnb7Nk256DpvL-21" value="&lt;font style=&quot;font-size: 14px;&quot;&gt;KieContainer&lt;/font&gt;" style="rounded=1;whiteSpace=wrap;html=1;shadow=0;glass=0;fontSize=14;fillColor=#d5e8d4;strokeColor=#82b366;" vertex="1" parent="WIyWlLk6GJQsqaUBKTNV-1">
          <mxGeometry x="414" y="370" width="130" height="40" as="geometry" />
        </mxCell>
        <mxCell id="y7AAn0BBnb7Nk256DpvL-22" value="&lt;font style=&quot;font-size: 14px;&quot;&gt;KieSession&lt;/font&gt;" style="rounded=1;whiteSpace=wrap;html=1;shadow=0;glass=0;fontSize=14;fillColor=#d5e8d4;strokeColor=#82b366;" vertex="1" parent="WIyWlLk6GJQsqaUBKTNV-1">
          <mxGeometry x="610" y="370" width="130" height="40" as="geometry" />
        </mxCell>
        <mxCell id="y7AAn0BBnb7Nk256DpvL-23" value="&lt;font style=&quot;font-size: 14px;&quot;&gt;KieBase&lt;/font&gt;" style="rounded=1;whiteSpace=wrap;html=1;shadow=0;glass=0;fontSize=14;fillColor=#fff2cc;strokeColor=#d6b656;" vertex="1" parent="WIyWlLk6GJQsqaUBKTNV-1">
          <mxGeometry x="340" y="480" width="130" height="40" as="geometry" />
        </mxCell>
        <mxCell id="y7AAn0BBnb7Nk256DpvL-24" value="&lt;font style=&quot;font-size: 14px;&quot;&gt;KieProject&lt;/font&gt;" style="rounded=1;whiteSpace=wrap;html=1;shadow=0;glass=0;fontSize=14;fillColor=#fff2cc;strokeColor=#d6b656;" vertex="1" parent="WIyWlLk6GJQsqaUBKTNV-1">
          <mxGeometry x="499.5" y="480" width="130" height="40" as="geometry" />
        </mxCell>
        <mxCell id="y7AAn0BBnb7Nk256DpvL-25" value="&lt;pre style=&quot;color: rgb(8, 8, 8); font-family: &amp;quot;JetBrains Mono&amp;quot;, monospace;&quot;&gt;&lt;font style=&quot;font-size: 12px;&quot;&gt;ClasspathKieProject&lt;/font&gt;&lt;/pre&gt;" style="rounded=1;whiteSpace=wrap;html=1;shadow=0;glass=0;fontSize=14;fillColor=#e1d5e7;strokeColor=#9673a6;" vertex="1" parent="WIyWlLk6GJQsqaUBKTNV-1">
          <mxGeometry x="490" y="570" width="170" height="50" as="geometry" />
        </mxCell>
      </root>
    </mxGraphModel>
  </diagram>
</mxfile>
